<svg width="149" height="50" viewBox="0 0 149 50" fill="none" xmlns="http://www.w3.org/2000/svg">
<path d="M48.1558 11.4022C48.1521 11.4022 48.1491 11.4016 48.1454 11.4016H47.3313C47.094 11.4016 46.9019 11.5679 46.9019 11.7734V14.7421C46.9019 14.9476 47.094 15.1139 47.3313 15.1139H47.5218C47.9096 15.1139 48.0468 15.1139 48.0898 15.1139C51.0484 15.1184 53.4427 17.192 53.4479 19.7535V30.2458C53.4427 32.808 51.0484 34.8809 48.0898 34.8854H21.7414C21.4011 34.8854 21.1245 35.1243 21.1245 35.4197V38.0641C21.1245 38.3589 21.4003 38.5984 21.7414 38.5984H48.0898C53.4175 38.5971 57.733 34.8597 57.7345 30.2465V19.7535C57.733 15.1595 53.4531 11.4343 48.1558 11.4022Z" fill="url(#paint0_linear_1_35)"/>
<path d="M44.1399 40.722H40.7119C40.4746 40.722 40.2826 40.8884 40.2826 41.0939V41.6474C40.2774 44.2096 37.8831 46.2832 34.9253 46.2877H22.8092C19.8506 46.2832 17.4563 44.2096 17.4519 41.6474V18.9656C17.4519 18.6721 17.1768 18.4339 16.8379 18.4339H13.7792C13.4404 18.4339 13.1653 18.6721 13.1653 18.9656V41.6474C13.1668 46.2613 17.4823 49.9987 22.8092 50H34.9253C40.1521 49.9987 44.4046 46.4 44.564 41.9062C44.561 41.9088 44.5566 41.9056 44.5507 41.8998C44.5588 41.8741 44.564 41.8478 44.5662 41.8208C44.5655 41.849 44.5647 41.8779 44.564 41.9062C44.5677 41.9036 44.5692 41.8953 44.5692 41.8799C44.5692 41.8799 44.5692 41.8426 44.5692 41.7983V41.6686C44.5692 41.6551 44.5692 41.6474 44.5692 41.6474V41.0939C44.5692 40.8884 44.3771 40.722 44.1399 40.722Z" fill="url(#paint1_linear_1_35)"/>
<path d="M13.5946 9.44235H17.0226C17.2598 9.44235 17.4519 9.27603 17.4519 9.07054V8.65891C17.4519 8.50864 17.4519 8.41232 17.4519 8.35196C17.4571 5.78973 19.8514 3.71619 22.8092 3.7117H34.9253C37.8839 3.71619 40.2774 5.78973 40.2826 8.35196C40.2826 8.35196 40.2826 21.4129 40.2826 31.1744C40.2826 31.4672 40.557 31.7042 40.8943 31.7042H43.9545C44.2934 31.7042 44.5685 31.4659 44.5685 31.1725V8.35196C44.5677 3.73867 40.2522 0.00128432 34.9253 0H22.8092C17.4823 0.00128432 13.1668 3.73867 13.1653 8.3526V8.36608V8.42966V9.07118C13.1653 9.27603 13.3573 9.44235 13.5946 9.44235Z" fill="url(#paint2_linear_1_35)"/>
<path d="M10.3572 34.8861H10.1771C9.73364 34.8861 9.65504 34.8861 9.64392 34.8861C6.68534 34.8816 4.29105 32.808 4.28586 30.2465V19.7535C4.29105 17.1913 6.68534 15.1178 9.64392 15.1139H35.8314C36.1717 15.1139 36.4483 14.875 36.4483 14.5796V11.9352C36.4483 11.6405 36.1725 11.4009 35.8314 11.4009H9.64466C4.317 11.4022 0.001483 15.1396 0 19.7529V30.2452C0.001483 34.8244 4.25323 38.54 9.52602 38.5958C9.53195 38.5958 9.53715 38.5971 9.54308 38.5971H10.3572C10.5945 38.5971 10.7866 38.4308 10.7866 38.2253V35.2566C10.7866 35.0524 10.5945 34.8861 10.3572 34.8861Z" fill="url(#paint3_linear_1_35)"/>
<path d="M29.3359 17.323C29.4864 17.3653 29.6458 17.357 29.8001 17.3795C32.2359 17.7262 33.9732 18.8738 35.0024 20.8112C35.431 21.6177 35.6075 22.4769 35.5422 23.3663C35.5074 23.8499 35.3472 24.3116 35.1611 24.765C34.7444 25.7822 34.1719 26.7351 33.5521 27.6669C32.5318 29.2017 31.3847 30.6652 30.176 32.092C29.522 32.8633 28.2259 32.8742 27.5756 32.1081C26.1897 30.4757 24.8817 28.799 23.7643 27.0164C23.266 26.222 22.8278 25.4046 22.4874 24.5466C22.0025 23.3272 22.107 22.1283 22.6654 20.9608C23.5448 19.1217 25.1272 17.9651 27.3539 17.4726C27.6698 17.4026 27.9938 17.3634 28.32 17.3429C28.3408 17.3416 28.3682 17.3499 28.3786 17.3236C28.6982 17.323 29.0171 17.323 29.3359 17.323ZM31.6494 22.9977C31.6471 21.6665 30.4059 20.5935 28.868 20.5941C27.3301 20.5948 26.0904 21.6678 26.0889 22.9997C26.0874 24.3347 27.3324 25.411 28.8754 25.4091C30.4111 25.4071 31.6516 24.3283 31.6494 22.9977Z" fill="url(#paint4_linear_1_35)"/>
<path d="M65.6625 31.9797H62.5343L68.2298 17.9689H71.8478L77.5512 31.9797H74.423L70.102 20.8422H69.9756L65.6625 31.9797ZM65.7652 26.4862H74.2966V28.5248H65.7652V26.4862ZM68.9407 16.5869L70.7102 13.4605H73.5066L71.0815 16.5869H68.9407Z" fill="#29867A"/>
<path d="M84.4632 36.1391C83.4363 36.1391 82.5542 36.0183 81.8169 35.7765C81.0796 35.5394 80.4872 35.2201 80.0395 34.8188C79.5919 34.4174 79.2812 33.9727 79.1074 33.4847L81.6826 32.9443C81.7985 33.1495 81.967 33.3525 82.1882 33.5531C82.4094 33.7584 82.7069 33.9271 83.0808 34.0594C83.46 34.1962 83.9366 34.2646 84.5106 34.2646C85.3216 34.2646 85.9931 34.0936 86.525 33.7515C87.0569 33.414 87.3228 32.8576 87.3228 32.0823V30.0915H87.1806C87.0332 30.3469 86.8173 30.6091 86.5329 30.8782C86.2538 31.1473 85.8825 31.3731 85.4191 31.5555C84.9609 31.7379 84.3842 31.8292 83.6891 31.8292C82.7569 31.8292 81.9117 31.6399 81.1533 31.2613C80.4003 30.8782 79.7999 30.3081 79.3523 29.551C78.9099 28.7894 78.6887 27.8362 78.6887 26.6914C78.6887 25.5375 78.9099 24.5638 79.3523 23.7702C79.7999 22.9721 80.4029 22.3678 81.1612 21.9573C81.9196 21.5422 82.7648 21.3347 83.697 21.3347C84.4079 21.3347 84.9925 21.4396 85.4507 21.6494C85.9141 21.8547 86.2827 22.1032 86.5566 22.3951C86.8304 22.6824 87.0385 22.9538 87.1806 23.2092H87.3386V21.4716H90.1588V32.1507C90.1588 33.0492 89.9112 33.7926 89.4162 34.3809C88.9212 34.9693 88.2444 35.4094 87.386 35.7013C86.5276 35.9932 85.5534 36.1391 84.4632 36.1391ZM84.4869 29.8862C85.0926 29.8862 85.6086 29.7585 86.0352 29.5031C86.4618 29.2477 86.7857 28.8806 87.0069 28.4017C87.228 27.9228 87.3386 27.3482 87.3386 26.6777C87.3386 26.0164 87.228 25.4372 87.0069 24.94C86.7909 24.4429 86.4697 24.0575 86.0431 23.7839C85.6218 23.5057 85.1031 23.3666 84.4869 23.3666C83.8497 23.3666 83.3178 23.5102 82.8912 23.7976C82.4647 24.0849 82.1434 24.4794 81.9275 24.9811C81.7116 25.4782 81.6036 26.0438 81.6036 26.6777C81.6036 27.3208 81.7116 27.8841 81.9275 28.3675C82.1487 28.8464 82.4726 29.2204 82.8991 29.4895C83.331 29.754 83.8602 29.8862 84.4869 29.8862Z" fill="#29867A"/>
<path d="M93.0895 31.9797V21.4716H95.9491V31.9797H93.0895ZM94.5272 19.9802C94.0743 19.9802 93.6846 19.8502 93.358 19.5902C93.0315 19.3257 92.8683 19.0087 92.8683 18.6393C92.8683 18.2653 93.0315 17.9483 93.358 17.6884C93.6846 17.4238 94.0743 17.2916 94.5272 17.2916C94.9853 17.2916 95.375 17.4238 95.6963 17.6884C96.0228 17.9483 96.1861 18.2653 96.1861 18.6393C96.1861 19.0087 96.0228 19.3257 95.6963 19.5902C95.375 19.8502 94.9853 19.9802 94.5272 19.9802Z" fill="#29867A"/>
<path d="M101.749 17.9689V31.9797H98.8896V17.9689H101.749Z" fill="#29867A"/>
<path d="M104.816 17.9689H108.403L113.205 28.1212H113.395L118.198 17.9689H121.784V31.9797H118.972V22.3541H118.822L114.351 31.9386H112.25L107.779 22.3335H107.628V31.9797H104.816V17.9689Z" fill="#29867A"/>
<path d="M130.221 32.1849C129.004 32.1849 127.954 31.966 127.069 31.5281C126.19 31.0857 125.513 30.4609 125.039 29.6536C124.565 28.8418 124.328 27.8863 124.328 26.7872C124.328 25.7063 124.565 24.7576 125.039 23.9412C125.518 23.1203 126.187 22.4818 127.045 22.0257C127.904 21.5651 128.912 21.3347 130.071 21.3347C130.819 21.3347 131.524 21.4396 132.188 21.6494C132.857 21.8547 133.447 22.1739 133.957 22.6072C134.474 23.0405 134.879 23.5923 135.174 24.2628C135.469 24.9286 135.616 25.7222 135.616 26.6435V27.4029H125.671V25.7336H132.875C132.87 25.2593 132.751 24.8374 132.52 24.468C132.288 24.094 131.964 23.7998 131.548 23.5855C131.137 23.3711 130.658 23.264 130.11 23.264C129.526 23.264 129.012 23.3871 128.57 23.6334C128.128 23.8751 127.783 24.1944 127.535 24.5911C127.293 24.9834 127.169 25.4144 127.164 25.8841V27.3413C127.164 27.9525 127.293 28.477 127.551 28.9148C127.809 29.3481 128.17 29.681 128.633 29.9136C129.097 30.1417 129.639 30.2557 130.26 30.2557C130.676 30.2557 131.053 30.2055 131.39 30.1052C131.727 30.0003 132.019 29.8475 132.267 29.6468C132.514 29.4461 132.701 29.1976 132.828 28.9011L135.498 29.1611C135.329 29.7722 135.008 30.3058 134.534 30.7619C134.065 31.2134 133.465 31.5646 132.733 31.8155C132.001 32.0618 131.164 32.1849 130.221 32.1849Z" fill="#29867A"/>
<path d="M142.538 32.1644C141.585 32.1644 140.732 31.9523 139.979 31.5281C139.226 31.104 138.631 30.4883 138.194 29.681C137.756 28.8737 137.538 27.8932 137.538 26.7393C137.538 25.5717 137.759 24.5866 138.201 23.7839C138.649 22.9766 139.252 22.3678 140.01 21.9573C140.769 21.5422 141.614 21.3347 142.546 21.3347C143.257 21.3347 143.842 21.4396 144.3 21.6494C144.758 21.8547 145.121 22.1032 145.39 22.3951C145.659 22.6824 145.867 22.9538 146.014 23.2092H146.132V17.9689H149V31.9797H146.188V30.3241H146.014C145.867 30.5795 145.653 30.8509 145.374 31.1382C145.095 31.421 144.726 31.6627 144.268 31.8634C143.81 32.064 143.233 32.1644 142.538 32.1644ZM143.336 30.1325C143.942 30.1325 144.458 29.9911 144.884 29.7084C145.311 29.421 145.635 29.022 145.856 28.5112C146.077 28.0004 146.188 27.4052 146.188 26.7256C146.188 26.046 146.077 25.4554 145.856 24.9537C145.64 24.452 145.319 24.0621 144.892 23.7839C144.471 23.5057 143.952 23.3666 143.336 23.3666C142.699 23.3666 142.167 23.5102 141.74 23.7976C141.314 24.0849 140.993 24.4817 140.777 24.9879C140.561 25.4942 140.453 26.0734 140.453 26.7256C140.453 27.3824 140.561 27.9684 140.777 28.4838C140.998 28.9946 141.322 29.3982 141.748 29.6947C142.18 29.9866 142.709 30.1325 143.336 30.1325Z" fill="#29867A"/>
<defs>
<linearGradient id="paint0_linear_1_35" x1="21.1251" y1="24.9998" x2="57.7345" y2="24.9998" gradientUnits="userSpaceOnUse">
<stop offset="5.32779e-09" stop-color="#29867A"/>
<stop offset="1" stop-color="#16C1CD"/>
</linearGradient>
<linearGradient id="paint1_linear_1_35" x1="13.1653" y1="34.217" x2="44.5692" y2="34.217" gradientUnits="userSpaceOnUse">
<stop offset="5.32779e-09" stop-color="#29867A"/>
<stop offset="1" stop-color="#16C1CD"/>
</linearGradient>
<linearGradient id="paint2_linear_1_35" x1="13.1653" y1="15.8523" x2="44.5692" y2="15.8523" gradientUnits="userSpaceOnUse">
<stop offset="5.32779e-09" stop-color="#29867A"/>
<stop offset="1" stop-color="#16C1CD"/>
</linearGradient>
<linearGradient id="paint3_linear_1_35" x1="-5.19048e-05" y1="24.9999" x2="36.4487" y2="24.9999" gradientUnits="userSpaceOnUse">
<stop offset="5.32779e-09" stop-color="#29867A"/>
<stop offset="1" stop-color="#16C1CD"/>
</linearGradient>
<linearGradient id="paint4_linear_1_35" x1="22.1785" y1="24.9999" x2="35.5561" y2="24.9999" gradientUnits="userSpaceOnUse">
<stop offset="5.32779e-09" stop-color="#29867A"/>
<stop offset="1" stop-color="#16C1CD"/>
</linearGradient>
</defs>
</svg>
