<svg width="2031" height="779" viewBox="0 0 2031 779" fill="none" xmlns="http://www.w3.org/2000/svg">
<path d="M649.44 177.56C649.39 177.56 649.35 177.55 649.3 177.55H638.32C635.12 177.55 632.53 180.14 632.53 183.34V229.57C632.53 232.77 635.12 235.36 638.32 235.36H640.89C646.12 235.36 647.97 235.36 648.55 235.36C688.45 235.43 720.74 267.72 720.81 307.61V471C720.74 510.9 688.45 543.18 648.55 543.25H293.21C288.62 543.25 284.89 546.97 284.89 551.57V592.75C284.89 597.34 288.61 601.07 293.21 601.07H648.55C720.4 601.05 778.6 542.85 778.62 471.01V307.61C778.6 236.07 720.88 178.06 649.44 177.56Z" fill="url(#paint0_linear_1_35)"/>
<path d="M595.28 634.14H549.05C545.85 634.14 543.26 636.73 543.26 639.93V648.55C543.19 688.45 510.9 720.74 471.01 720.81H307.61C267.71 720.74 235.42 688.45 235.36 648.55V295.34C235.36 290.77 231.65 287.06 227.08 287.06H185.83C181.26 287.06 177.55 290.77 177.55 295.34V648.55C177.57 720.4 235.77 778.6 307.61 778.62H471.01C541.5 778.6 598.85 722.56 601 652.58C600.96 652.62 600.9 652.57 600.82 652.48C600.93 652.08 601 651.67 601.03 651.25C601.02 651.69 601.01 652.14 601 652.58C601.05 652.54 601.07 652.41 601.07 652.17C601.07 652.17 601.07 651.59 601.07 650.9V648.88C601.07 648.67 601.07 648.55 601.07 648.55V639.93C601.07 636.73 598.48 634.14 595.28 634.14Z" fill="url(#paint1_linear_1_35)"/>
<path d="M183.34 147.04H229.57C232.77 147.04 235.36 144.45 235.36 141.25V134.84C235.36 132.5 235.36 131 235.36 130.06C235.43 90.16 267.72 57.87 307.61 57.8H471.01C510.91 57.87 543.19 90.16 543.26 130.06C543.26 130.06 543.26 333.45 543.26 485.46C543.26 490.02 546.96 493.71 551.51 493.71H592.78C597.35 493.71 601.06 490 601.06 485.43V130.06C601.05 58.22 542.85 0.02 471.01 0H307.61C235.77 0.02 177.57 58.22 177.55 130.07V130.28V131.27V141.26C177.55 144.45 180.14 147.04 183.34 147.04Z" fill="url(#paint2_linear_1_35)"/>
<path d="M139.68 543.26H137.25C131.27 543.26 130.21 543.26 130.06 543.26C90.16 543.19 57.87 510.9 57.8 471.01V307.61C57.87 267.71 90.16 235.42 130.06 235.36H483.23C487.82 235.36 491.55 231.64 491.55 227.04V185.86C491.55 181.27 487.83 177.54 483.23 177.54H130.07C58.22 177.56 0.02 235.76 0 307.6V470.99C0.02 542.3 57.36 600.16 128.47 601.03C128.55 601.03 128.62 601.05 128.7 601.05H139.68C142.88 601.05 145.47 598.46 145.47 595.26V549.03C145.47 545.85 142.88 543.26 139.68 543.26Z" fill="url(#paint3_linear_1_35)"/>
<path d="M395.63 269.76C397.66 270.42 399.81 270.29 401.89 270.64C434.74 276.04 458.17 293.91 472.05 324.08C477.83 336.64 480.21 350.02 479.33 363.87C478.86 371.4 476.7 378.59 474.19 385.65C468.57 401.49 460.85 416.33 452.49 430.84C438.73 454.74 423.26 477.53 406.96 499.75C398.14 511.76 380.66 511.93 371.89 500C353.2 474.58 335.56 448.47 320.49 420.71C313.77 408.34 307.86 395.61 303.27 382.25C296.73 363.26 298.14 344.59 305.67 326.41C317.53 297.77 338.87 279.76 368.9 272.09C373.16 271 377.53 270.39 381.93 270.07C382.21 270.05 382.58 270.18 382.72 269.77C387.03 269.76 391.33 269.76 395.63 269.76ZM426.83 358.13C426.8 337.4 410.06 320.69 389.32 320.7C368.58 320.71 351.86 337.42 351.84 358.16C351.82 378.95 368.61 395.71 389.42 395.68C410.13 395.65 426.86 378.85 426.83 358.13Z" fill="url(#paint4_linear_1_35)"/>
<path d="M885.538 498H843.351L920.162 279.818H968.955L1045.87 498H1003.68L945.411 324.562H943.706L885.538 498ZM886.923 412.453H1001.98V444.2H886.923V412.453ZM929.75 258.298L953.614 209.612H991.327L958.621 258.298H929.75ZM1139.09 562.773C1125.24 562.773 1113.34 560.891 1103.4 557.126C1093.46 553.433 1085.47 548.462 1079.43 542.212C1073.39 535.962 1069.2 529.037 1066.86 521.438L1101.59 513.021C1103.15 516.217 1105.42 519.378 1108.41 522.503C1111.39 525.699 1115.4 528.327 1120.45 530.386C1125.56 532.517 1131.99 533.582 1139.73 533.582C1150.67 533.582 1159.72 530.919 1166.89 525.592C1174.07 520.337 1177.65 511.672 1177.65 499.598V468.597H1175.74C1173.75 472.574 1170.84 476.658 1167 480.848C1163.24 485.038 1158.23 488.554 1151.98 491.395C1145.8 494.236 1138.02 495.656 1128.65 495.656C1116.08 495.656 1104.68 492.709 1094.45 486.814C1084.3 480.848 1076.2 471.97 1070.16 460.18C1064.2 448.32 1061.21 433.476 1061.21 415.649C1061.21 397.68 1064.2 382.517 1070.16 370.159C1076.2 357.73 1084.33 348.32 1094.56 341.928C1104.79 335.464 1116.18 332.233 1128.76 332.233C1138.34 332.233 1146.23 333.866 1152.41 337.134C1158.66 340.33 1163.63 344.2 1167.32 348.746C1171.01 353.22 1173.82 357.446 1175.74 361.423H1177.87V334.364H1215.9V500.663C1215.9 514.655 1212.56 526.232 1205.89 535.393C1199.21 544.555 1190.08 551.409 1178.51 555.955C1166.93 560.5 1153.79 562.773 1139.09 562.773ZM1139.41 465.401C1147.58 465.401 1154.54 463.412 1160.29 459.435C1166.04 455.457 1170.41 449.74 1173.39 442.283C1176.38 434.825 1177.87 425.876 1177.87 415.436C1177.87 405.138 1176.38 396.118 1173.39 388.376C1170.48 380.635 1166.15 374.634 1160.4 370.372C1154.71 366.04 1147.72 363.874 1139.41 363.874C1130.82 363.874 1123.64 366.111 1117.89 370.585C1112.14 375.06 1107.8 381.203 1104.89 389.016C1101.98 396.757 1100.52 405.564 1100.52 415.436C1100.52 425.45 1101.98 434.222 1104.89 441.75C1107.88 449.207 1112.24 455.031 1118 459.222C1123.82 463.341 1130.96 465.401 1139.41 465.401ZM1255.42 498V334.364H1293.99V498H1255.42ZM1274.81 311.139C1268.71 311.139 1263.45 309.115 1259.05 305.067C1254.64 300.947 1252.44 296.011 1252.44 290.259C1252.44 284.435 1254.64 279.499 1259.05 275.45C1263.45 271.331 1268.71 269.271 1274.81 269.271C1280.99 269.271 1286.25 271.331 1290.58 275.45C1294.98 279.499 1297.19 284.435 1297.19 290.259C1297.19 296.011 1294.98 300.947 1290.58 305.067C1286.25 309.115 1280.99 311.139 1274.81 311.139ZM1372.21 279.818V498H1333.65V279.818H1372.21ZM1413.57 279.818H1461.94L1526.71 437.915H1529.27L1594.04 279.818H1642.41V498H1604.48V348.107H1602.46L1542.16 497.361H1513.82L1453.52 347.787H1451.5V498H1413.57V279.818ZM1756.19 501.196C1739.78 501.196 1725.61 497.787 1713.68 490.969C1701.82 484.08 1692.69 474.349 1686.3 461.778C1679.91 449.136 1676.71 434.257 1676.71 417.141C1676.71 400.308 1679.91 385.536 1686.3 372.822C1692.76 360.038 1701.78 350.095 1713.36 342.993C1724.94 335.82 1738.54 332.233 1754.16 332.233C1764.25 332.233 1773.77 333.866 1782.72 337.134C1791.74 340.33 1799.69 345.301 1806.58 352.048C1813.54 358.795 1819.01 367.389 1822.99 377.83C1826.96 388.199 1828.95 400.557 1828.95 414.903V426.729H1694.82V400.734H1791.98C1791.91 393.348 1790.31 386.778 1787.19 381.026C1784.06 375.202 1779.7 370.621 1774.09 367.283C1768.55 363.945 1762.08 362.276 1754.7 362.276C1746.81 362.276 1739.89 364.193 1733.92 368.028C1727.96 371.793 1723.3 376.764 1719.97 382.943C1716.7 389.051 1715.03 395.763 1714.96 403.078V425.77C1714.96 435.287 1716.7 443.455 1720.18 450.273C1723.66 457.02 1728.52 462.205 1734.77 465.827C1741.02 469.378 1748.34 471.153 1756.72 471.153C1762.33 471.153 1767.41 470.372 1771.96 468.81C1776.5 467.176 1780.44 464.797 1783.78 461.672C1787.12 458.547 1789.64 454.676 1791.34 450.06L1827.35 454.108C1825.08 463.625 1820.75 471.935 1814.36 479.037C1808.03 486.068 1799.94 491.537 1790.07 495.443C1780.19 499.278 1768.9 501.196 1756.19 501.196ZM1922.3 500.876C1909.45 500.876 1897.94 497.574 1887.78 490.969C1877.63 484.364 1869.6 474.776 1863.71 462.205C1857.81 449.634 1854.87 434.364 1854.87 416.395C1854.87 398.213 1857.85 382.872 1863.81 370.372C1869.85 357.801 1877.98 348.32 1888.21 341.928C1898.44 335.464 1909.84 332.233 1922.41 332.233C1932 332.233 1939.88 333.866 1946.06 337.134C1952.24 340.33 1957.14 344.2 1960.76 348.746C1964.38 353.22 1967.19 357.446 1969.18 361.423H1970.77V279.818H2009.45V498H1971.52V472.219H1969.18C1967.19 476.196 1964.31 480.422 1960.55 484.896C1956.78 489.3 1951.81 493.064 1945.63 496.189C1939.45 499.314 1931.68 500.876 1922.3 500.876ZM1933.06 469.236C1941.23 469.236 1948.19 467.034 1953.94 462.631C1959.69 458.156 1964.06 451.942 1967.05 443.987C1970.03 436.033 1971.52 426.764 1971.52 416.182C1971.52 405.599 1970.03 396.402 1967.05 388.589C1964.13 380.777 1959.8 374.705 1954.05 370.372C1948.37 366.04 1941.37 363.874 1933.06 363.874C1924.47 363.874 1917.29 366.111 1911.54 370.585C1905.79 375.06 1901.46 381.239 1898.54 389.122C1895.63 397.006 1894.18 406.026 1894.18 416.182C1894.18 426.409 1895.63 435.536 1898.54 443.561C1901.53 451.516 1905.9 457.801 1911.65 462.418C1917.47 466.963 1924.61 469.236 1933.06 469.236Z" fill="#29867A"/>
<path d="M885.538 498V502H888.416L889.331 499.272L885.538 498ZM843.351 498L839.578 496.672L837.702 502H843.351V498ZM920.162 279.818V275.818H917.329L916.389 278.49L920.162 279.818ZM968.955 279.818L972.727 278.488L971.786 275.818H968.955V279.818ZM1045.87 498V502H1051.52L1049.64 496.67L1045.87 498ZM1003.68 498L999.893 499.274L1000.81 502H1003.68V498ZM945.411 324.562L949.202 323.289L948.286 320.562H945.411V324.562ZM943.706 324.562V320.562H940.829L939.914 323.291L943.706 324.562ZM886.923 412.453V408.453H882.923V412.453H886.923ZM1001.98 412.453H1005.98V408.453H1001.98V412.453ZM1001.98 444.2V448.2H1005.98V444.2H1001.98ZM886.923 444.2H882.923V448.2H886.923V444.2ZM929.75 258.298L926.158 256.538L923.335 262.298H929.75V258.298ZM953.614 209.612V205.612H951.12L950.022 207.852L953.614 209.612ZM991.327 209.612L994.647 211.843L998.833 205.612H991.327V209.612ZM958.621 258.298V262.298H960.752L961.941 260.529L958.621 258.298ZM885.538 494H843.351V502H885.538V494ZM847.124 499.328L923.935 281.146L916.389 278.49L839.578 496.672L847.124 499.328ZM920.162 283.818H968.955V275.818H920.162V283.818ZM965.182 281.148L1042.1 499.33L1049.64 496.67L972.727 278.488L965.182 281.148ZM1045.87 494H1003.68V502H1045.87V494ZM1007.48 496.726L949.202 323.289L941.619 325.836L999.893 499.274L1007.48 496.726ZM945.411 320.562H943.706V328.562H945.411V320.562ZM939.914 323.291L881.746 496.728L889.331 499.272L947.498 325.834L939.914 323.291ZM886.923 416.453H1001.98V408.453H886.923V416.453ZM997.98 412.453V444.2H1005.98V412.453H997.98ZM1001.98 440.2H886.923V448.2H1001.98V440.2ZM890.923 444.2V412.453H882.923V444.2H890.923ZM933.342 260.059L957.205 211.373L950.022 207.852L926.158 256.538L933.342 260.059ZM953.614 213.612H991.327V205.612H953.614V213.612ZM988.006 207.382L955.3 256.068L961.941 260.529L994.647 211.843L988.006 207.382ZM958.621 254.298H929.75V262.298H958.621V254.298ZM1103.4 557.126L1104.82 553.386L1104.81 553.381L1104.79 553.377L1103.4 557.126ZM1079.43 542.212L1082.31 539.433L1082.31 539.433L1079.43 542.212ZM1066.86 521.438L1065.92 517.55L1061.78 518.552L1063.04 522.616L1066.86 521.438ZM1101.59 513.021L1105.18 511.264L1103.77 508.377L1100.65 509.134L1101.59 513.021ZM1108.41 522.503L1111.33 519.774L1111.32 519.757L1111.3 519.741L1108.41 522.503ZM1120.45 530.386L1121.98 526.694L1121.97 526.689L1121.96 526.683L1120.45 530.386ZM1166.89 525.592L1164.53 522.366L1164.52 522.373L1164.51 522.381L1166.89 525.592ZM1177.65 468.597H1181.65V464.597H1177.65V468.597ZM1175.74 468.597V464.597H1173.27L1172.16 466.808L1175.74 468.597ZM1167 480.848L1164.05 478.147L1164.04 478.161L1164.03 478.175L1167 480.848ZM1151.98 491.395L1150.32 487.753L1150.32 487.757L1150.31 487.761L1151.98 491.395ZM1094.45 486.814L1092.43 490.263L1092.44 490.271L1092.45 490.279L1094.45 486.814ZM1070.16 460.18L1066.59 461.978L1066.59 461.991L1066.6 462.003L1070.16 460.18ZM1070.16 370.159L1066.56 368.411L1066.56 368.42L1070.16 370.159ZM1094.56 341.928L1096.68 345.32L1096.69 345.314L1096.7 345.309L1094.56 341.928ZM1152.41 337.134L1150.54 340.67L1150.56 340.682L1150.59 340.695L1152.41 337.134ZM1167.32 348.746L1164.22 351.268L1164.23 351.28L1164.24 351.292L1167.32 348.746ZM1175.74 361.423L1172.13 363.16L1173.23 365.423H1175.74V361.423ZM1177.87 361.423V365.423H1181.87V361.423H1177.87ZM1177.87 334.364V330.364H1173.87V334.364H1177.87ZM1215.9 334.364H1219.9V330.364H1215.9V334.364ZM1205.89 535.393L1209.12 537.749L1209.12 537.749L1205.89 535.393ZM1178.51 555.955L1179.97 559.678L1179.97 559.678L1178.51 555.955ZM1160.29 459.435L1158.02 456.144L1158.02 456.144L1160.29 459.435ZM1173.39 388.376L1169.65 389.785L1169.66 389.8L1169.66 389.815L1173.39 388.376ZM1160.4 370.372L1157.97 373.553L1157.99 373.57L1158.02 373.586L1160.4 370.372ZM1117.89 370.585L1115.43 367.428L1115.43 367.428L1117.89 370.585ZM1104.89 389.016L1108.64 390.424L1108.64 390.413L1104.89 389.016ZM1104.89 441.75L1101.16 443.193L1101.17 443.214L1101.18 443.236L1104.89 441.75ZM1118 459.222L1115.64 462.455L1115.66 462.471L1115.69 462.487L1118 459.222ZM1139.09 558.773C1125.59 558.773 1114.19 556.935 1104.82 553.386L1101.98 560.867C1112.49 564.846 1124.9 566.773 1139.09 566.773V558.773ZM1104.79 553.377C1095.29 549.847 1087.85 545.168 1082.31 539.433L1076.55 544.991C1083.09 551.756 1091.63 557.02 1102.01 560.876L1104.79 553.377ZM1082.31 539.433C1076.67 533.592 1072.82 527.204 1070.68 520.259L1063.04 522.616C1065.58 530.87 1070.12 538.331 1076.55 544.991L1082.31 539.433ZM1067.8 525.325L1102.53 516.909L1100.65 509.134L1065.92 517.55L1067.8 525.325ZM1098 514.778C1099.77 518.412 1102.31 521.904 1105.51 525.265L1111.3 519.741C1108.54 516.852 1106.53 514.022 1105.18 511.264L1098 514.778ZM1105.48 525.232C1108.95 528.942 1113.48 531.863 1118.93 534.089L1121.96 526.683C1117.32 524.79 1113.84 522.456 1111.33 519.774L1105.48 525.232ZM1118.91 534.079C1124.66 536.476 1131.65 537.582 1139.73 537.582V529.582C1132.32 529.582 1126.46 528.558 1121.98 526.694L1118.91 534.079ZM1139.73 537.582C1151.33 537.582 1161.27 534.748 1169.28 528.804L1164.51 522.381C1158.17 527.09 1150 529.582 1139.73 529.582V537.582ZM1169.26 528.819C1177.8 522.559 1181.65 512.453 1181.65 499.598H1173.65C1173.65 510.89 1170.33 518.114 1164.53 522.366L1169.26 528.819ZM1181.65 499.598V468.597H1173.65V499.598H1181.65ZM1177.65 464.597H1175.74V472.597H1177.65V464.597ZM1172.16 466.808C1170.38 470.377 1167.7 474.159 1164.05 478.147L1169.95 483.549C1173.97 479.157 1177.12 474.771 1179.31 470.385L1172.16 466.808ZM1164.03 478.175C1160.7 481.875 1156.18 485.092 1150.32 487.753L1153.64 495.036C1160.28 492.016 1165.77 488.201 1169.98 483.521L1164.03 478.175ZM1150.31 487.761C1144.81 490.287 1137.65 491.656 1128.65 491.656V499.656C1138.4 499.656 1146.79 498.184 1153.65 495.029L1150.31 487.761ZM1128.65 491.656C1116.73 491.656 1106.03 488.87 1096.45 483.348L1092.45 490.279C1103.33 496.547 1115.42 499.656 1128.65 499.656V491.656ZM1096.48 483.365C1087.06 477.831 1079.46 469.557 1073.72 458.357L1066.6 462.003C1072.94 474.383 1081.53 483.865 1092.43 490.263L1096.48 483.365ZM1073.74 458.383C1068.13 447.237 1065.21 433.056 1065.21 415.649H1057.21C1057.21 433.896 1060.26 449.402 1066.59 461.978L1073.74 458.383ZM1065.21 415.649C1065.21 398.104 1068.13 383.573 1073.76 371.898L1066.56 368.42C1060.26 381.461 1057.21 397.257 1057.21 415.649H1065.21ZM1073.76 371.907C1079.52 360.053 1087.18 351.258 1096.68 345.32L1092.44 338.536C1081.48 345.381 1072.88 355.407 1066.56 368.411L1073.76 371.907ZM1096.7 345.309C1106.26 339.266 1116.91 336.233 1128.76 336.233V328.233C1115.46 328.233 1103.31 331.663 1092.42 338.546L1096.7 345.309ZM1128.76 336.233C1137.92 336.233 1145.11 337.799 1150.54 340.67L1154.28 333.597C1147.35 329.934 1138.77 328.233 1128.76 328.233V336.233ZM1150.59 340.695C1156.44 343.687 1160.94 347.231 1164.22 351.268L1170.43 346.223C1166.32 341.169 1160.88 336.972 1154.23 333.572L1150.59 340.695ZM1164.24 351.292C1167.78 355.591 1170.39 359.547 1172.13 363.16L1179.34 359.686C1177.25 355.345 1174.24 350.849 1170.41 346.199L1164.24 351.292ZM1175.74 365.423H1177.87V357.423H1175.74V365.423ZM1181.87 361.423V334.364H1173.87V361.423H1181.87ZM1177.87 338.364H1215.9V330.364H1177.87V338.364ZM1211.9 334.364V500.663H1219.9V334.364H1211.9ZM1211.9 500.663C1211.9 514.01 1208.72 524.707 1202.65 533.038L1209.12 537.749C1216.4 527.756 1219.9 515.3 1219.9 500.663H1211.9ZM1202.65 533.038C1196.47 541.526 1187.98 547.936 1177.05 552.231L1179.97 559.678C1192.18 554.882 1201.95 547.585 1209.12 537.749L1202.65 533.038ZM1177.05 552.231C1166.01 556.564 1153.38 558.773 1139.09 558.773V566.773C1154.2 566.773 1167.85 564.436 1179.97 559.678L1177.05 552.231ZM1139.41 469.401C1148.25 469.401 1156.04 467.238 1162.56 462.725L1158.02 456.144C1153.04 459.586 1146.9 461.401 1139.41 461.401V469.401ZM1162.56 462.725C1169.06 458.237 1173.88 451.844 1177.11 443.768L1169.68 440.797C1166.94 447.636 1163.03 452.678 1158.02 456.144L1162.56 462.725ZM1177.11 443.768C1180.33 435.72 1181.87 426.24 1181.87 415.436H1173.87C1173.87 425.513 1172.43 433.931 1169.68 440.797L1177.11 443.768ZM1181.87 415.436C1181.87 404.76 1180.32 395.234 1177.13 386.938L1169.66 389.815C1172.43 397.001 1173.87 405.515 1173.87 415.436H1181.87ZM1177.14 386.968C1174 378.621 1169.24 371.945 1162.78 367.158L1158.02 373.586C1163.06 377.322 1166.97 382.649 1169.65 389.785L1177.14 386.968ZM1162.82 367.191C1156.33 362.244 1148.45 359.874 1139.41 359.874V367.874C1146.99 367.874 1153.1 369.836 1157.97 373.553L1162.82 367.191ZM1139.41 359.874C1130.09 359.874 1122.01 362.314 1115.43 367.428L1120.34 373.743C1125.28 369.908 1131.54 367.874 1139.41 367.874V359.874ZM1115.43 367.428C1109.01 372.42 1104.28 379.213 1101.14 387.619L1108.64 390.413C1111.33 383.193 1115.26 377.699 1120.34 373.743L1115.43 367.428ZM1101.15 387.607C1098.04 395.877 1096.52 405.174 1096.52 415.436H1104.52C1104.52 405.954 1105.92 397.637 1108.64 390.424L1101.15 387.607ZM1096.52 415.436C1096.52 425.829 1098.03 435.108 1101.16 443.193L1108.62 440.307C1105.93 433.335 1104.52 425.071 1104.52 415.436H1096.52ZM1101.18 443.236C1104.4 451.299 1109.2 457.766 1115.64 462.455L1120.35 455.988C1115.28 452.296 1111.35 447.115 1108.61 440.264L1101.18 443.236ZM1115.69 462.487C1122.3 467.168 1130.29 469.401 1139.41 469.401V461.401C1131.63 461.401 1125.34 459.514 1120.31 455.956L1115.69 462.487ZM1255.42 498H1251.42V502H1255.42V498ZM1255.42 334.364V330.364H1251.42V334.364H1255.42ZM1293.99 334.364H1297.99V330.364H1293.99V334.364ZM1293.99 498V502H1297.99V498H1293.99ZM1259.05 305.067L1256.31 307.988L1256.33 308L1256.34 308.011L1259.05 305.067ZM1259.05 275.45L1261.75 278.395L1261.77 278.383L1261.78 278.371L1259.05 275.45ZM1290.58 275.45L1287.82 278.349L1287.85 278.372L1287.87 278.395L1290.58 275.45ZM1290.58 305.067L1293.31 307.989L1293.31 307.988L1290.58 305.067ZM1259.42 498V334.364H1251.42V498H1259.42ZM1255.42 338.364H1293.99V330.364H1255.42V338.364ZM1289.99 334.364V498H1297.99V334.364H1289.99ZM1293.99 494H1255.42V502H1293.99V494ZM1274.81 307.139C1269.69 307.139 1265.4 305.476 1261.75 302.122L1256.34 308.011C1261.5 312.754 1267.73 315.139 1274.81 315.139V307.139ZM1261.78 302.146C1258.14 298.742 1256.44 294.846 1256.44 290.259H1248.44C1248.44 297.177 1251.15 303.153 1256.31 307.988L1261.78 302.146ZM1256.44 290.259C1256.44 285.588 1258.15 281.709 1261.75 278.395L1256.34 272.506C1251.14 277.288 1248.44 283.282 1248.44 290.259H1256.44ZM1261.78 278.371C1265.43 274.955 1269.71 273.271 1274.81 273.271V265.271C1267.71 265.271 1261.47 267.707 1256.31 272.529L1261.78 278.371ZM1274.81 273.271C1280.01 273.271 1284.26 274.963 1287.82 278.349L1293.34 272.551C1288.23 267.699 1281.98 265.271 1274.81 265.271V273.271ZM1287.87 278.395C1291.48 281.709 1293.19 285.588 1293.19 290.259H1301.19C1301.19 283.282 1298.49 277.288 1293.29 272.506L1287.87 278.395ZM1293.19 290.259C1293.19 294.846 1291.49 298.742 1287.85 302.146L1293.31 307.988C1298.48 303.153 1301.19 297.177 1301.19 290.259H1293.19ZM1287.85 302.144C1284.29 305.469 1280.03 307.139 1274.81 307.139V315.139C1281.96 315.139 1288.2 312.761 1293.31 307.989L1287.85 302.144ZM1372.21 279.818H1376.21V275.818H1372.21V279.818ZM1372.21 498V502H1376.21V498H1372.21ZM1333.65 498H1329.65V502H1333.65V498ZM1333.65 279.818V275.818H1329.65V279.818H1333.65ZM1368.21 279.818V498H1376.21V279.818H1368.21ZM1372.21 494H1333.65V502H1372.21V494ZM1337.65 498V279.818H1329.65V498H1337.65ZM1333.65 283.818H1372.21V275.818H1333.65V283.818ZM1413.57 279.818V275.818H1409.57V279.818H1413.57ZM1461.94 279.818L1465.64 278.302L1464.62 275.818H1461.94V279.818ZM1526.71 437.915L1523.01 439.431L1524.03 441.915H1526.71V437.915ZM1529.27 437.915V441.915H1531.95L1532.97 439.431L1529.27 437.915ZM1594.04 279.818V275.818H1591.36L1590.34 278.302L1594.04 279.818ZM1642.41 279.818H1646.41V275.818H1642.41V279.818ZM1642.41 498V502H1646.41V498H1642.41ZM1604.48 498H1600.48V502H1604.48V498ZM1604.48 348.107H1608.48V344.107H1604.48V348.107ZM1602.46 348.107V344.107H1599.76L1598.75 346.608L1602.46 348.107ZM1542.16 497.361V501.361H1544.86L1545.87 498.859L1542.16 497.361ZM1513.82 497.361L1510.11 498.856L1511.12 501.361H1513.82V497.361ZM1453.52 347.787L1457.23 346.291L1456.23 343.787H1453.52V347.787ZM1451.5 347.787V343.787H1447.5V347.787H1451.5ZM1451.5 498V502H1455.5V498H1451.5ZM1413.57 498H1409.57V502H1413.57V498ZM1413.57 283.818H1461.94V275.818H1413.57V283.818ZM1458.24 281.335L1523.01 439.431L1530.42 436.398L1465.64 278.302L1458.24 281.335ZM1526.71 441.915H1529.27V433.915H1526.71V441.915ZM1532.97 439.431L1597.74 281.335L1590.34 278.302L1525.57 436.398L1532.97 439.431ZM1594.04 283.818H1642.41V275.818H1594.04V283.818ZM1638.41 279.818V498H1646.41V279.818H1638.41ZM1642.41 494H1604.48V502H1642.41V494ZM1608.48 498V348.107H1600.48V498H1608.48ZM1604.48 344.107H1602.46V352.107H1604.48V344.107ZM1598.75 346.608L1538.45 495.862L1545.87 498.859L1606.17 349.605L1598.75 346.608ZM1542.16 493.361H1513.82V501.361H1542.16V493.361ZM1517.53 495.865L1457.23 346.291L1449.81 349.283L1510.11 498.856L1517.53 495.865ZM1453.52 343.787H1451.5V351.787H1453.52V343.787ZM1447.5 347.787V498H1455.5V347.787H1447.5ZM1451.5 494H1413.57V502H1451.5V494ZM1417.57 498V279.818H1409.57V498H1417.57ZM1713.68 490.969L1711.67 494.428L1711.68 494.435L1711.7 494.442L1713.68 490.969ZM1686.3 461.778L1682.73 463.583L1682.74 463.591L1686.3 461.778ZM1686.3 372.822L1682.73 371.018L1682.73 371.026L1686.3 372.822ZM1713.36 342.993L1715.45 346.402L1715.46 346.398L1715.47 346.393L1713.36 342.993ZM1782.72 337.134L1781.34 340.891L1781.36 340.897L1781.38 340.904L1782.72 337.134ZM1806.58 352.048L1803.78 354.906L1803.79 354.913L1803.79 354.92L1806.58 352.048ZM1822.99 377.83L1819.25 379.254L1819.25 379.262L1822.99 377.83ZM1828.95 426.729V430.729H1832.95V426.729H1828.95ZM1694.82 426.729H1690.82V430.729H1694.82V426.729ZM1694.82 400.734V396.734H1690.82V400.734H1694.82ZM1791.98 400.734V404.734H1796.02L1795.98 400.696L1791.98 400.734ZM1787.19 381.026L1783.66 382.917L1783.67 382.926L1783.67 382.935L1787.19 381.026ZM1774.09 367.283L1772.02 370.709L1772.03 370.715L1772.04 370.72L1774.09 367.283ZM1733.92 368.028L1736.06 371.411L1736.07 371.402L1736.09 371.393L1733.92 368.028ZM1719.97 382.943L1716.45 381.042L1716.44 381.049L1716.44 381.057L1719.97 382.943ZM1714.96 403.078L1710.96 403.039L1710.96 403.059V403.078H1714.96ZM1720.18 450.273L1716.62 452.091L1716.62 452.099L1716.62 452.106L1720.18 450.273ZM1734.77 465.827L1732.77 469.288L1732.78 469.296L1732.8 469.305L1734.77 465.827ZM1771.96 468.81L1773.26 472.592L1773.28 472.583L1773.31 472.574L1771.96 468.81ZM1791.34 450.06L1791.79 446.085L1788.68 445.735L1787.59 448.674L1791.34 450.06ZM1827.35 454.108L1831.24 455.037L1832.29 450.638L1827.8 450.133L1827.35 454.108ZM1814.36 479.037L1811.38 476.361L1811.38 476.363L1814.36 479.037ZM1790.07 495.443L1791.51 499.172L1791.53 499.167L1791.54 499.163L1790.07 495.443ZM1756.19 497.196C1740.34 497.196 1726.89 493.907 1715.67 487.496L1711.7 494.442C1724.34 501.667 1739.22 505.196 1756.19 505.196V497.196ZM1715.69 487.51C1704.52 481.019 1695.92 471.87 1689.87 459.965L1682.74 463.591C1689.47 476.829 1699.13 487.14 1711.67 494.428L1715.69 487.51ZM1689.87 459.974C1683.82 447.996 1680.71 433.759 1680.71 417.141H1672.71C1672.71 434.755 1676 450.277 1682.73 463.583L1689.87 459.974ZM1680.71 417.141C1680.71 400.819 1683.81 386.682 1689.88 374.619L1682.73 371.026C1676.01 384.389 1672.71 399.798 1672.71 417.141H1680.71ZM1689.87 374.627C1696.02 362.467 1704.54 353.095 1715.45 346.402L1711.27 339.583C1699.03 347.095 1689.51 357.61 1682.73 371.018L1689.87 374.627ZM1715.47 346.393C1726.32 339.667 1739.17 336.233 1754.16 336.233V328.233C1737.91 328.233 1723.55 331.972 1711.25 339.593L1715.47 346.393ZM1754.16 336.233C1763.81 336.233 1772.86 337.794 1781.34 340.891L1784.09 333.376C1774.67 329.939 1764.69 328.233 1754.16 328.233V336.233ZM1781.38 340.904C1789.85 343.904 1797.3 348.563 1803.78 354.906L1809.38 349.191C1802.08 342.04 1793.62 336.755 1784.05 333.363L1781.38 340.904ZM1803.79 354.92C1810.28 361.203 1815.45 369.277 1819.25 379.254L1826.72 376.406C1822.57 365.502 1816.8 356.388 1809.36 349.176L1803.79 354.92ZM1819.25 379.262C1823.01 389.062 1824.95 400.911 1824.95 414.903H1832.95C1832.95 400.203 1830.92 387.335 1826.72 376.397L1819.25 379.262ZM1824.95 414.903V426.729H1832.95V414.903H1824.95ZM1828.95 422.729H1694.82V430.729H1828.95V422.729ZM1698.82 426.729V400.734H1690.82V426.729H1698.82ZM1694.82 404.734H1791.98V396.734H1694.82V404.734ZM1795.98 400.696C1795.91 392.741 1794.18 385.514 1790.7 379.116L1783.67 382.935C1786.45 388.043 1787.92 393.955 1787.98 400.773L1795.98 400.696ZM1790.71 379.134C1787.25 372.679 1782.37 367.559 1776.13 363.845L1772.04 370.72C1777.02 373.682 1780.88 377.725 1783.66 382.917L1790.71 379.134ZM1776.15 363.857C1769.9 360.092 1762.71 358.276 1754.7 358.276V366.276C1761.46 366.276 1767.19 367.797 1772.02 370.709L1776.15 363.857ZM1754.7 358.276C1746.13 358.276 1738.44 360.368 1731.76 364.664L1736.09 371.393C1741.34 368.018 1747.49 366.276 1754.7 366.276V358.276ZM1731.79 364.645C1725.24 368.775 1720.11 374.256 1716.45 381.042L1723.49 384.844C1726.5 379.273 1730.67 374.811 1736.06 371.411L1731.79 364.645ZM1716.44 381.057C1712.85 387.765 1711.04 395.116 1710.96 403.039L1718.96 403.117C1719.02 396.409 1720.55 390.337 1723.49 384.83L1716.44 381.057ZM1710.96 403.078V425.77H1718.96V403.078H1710.96ZM1710.96 425.77C1710.96 435.768 1712.79 444.589 1716.62 452.091L1723.74 448.454C1720.61 442.32 1718.96 434.805 1718.96 425.77H1710.96ZM1716.62 452.106C1720.44 459.496 1725.82 465.262 1732.77 469.288L1736.78 462.366C1731.23 459.147 1726.88 454.543 1723.73 448.439L1716.62 452.106ZM1732.8 469.305C1739.74 473.251 1747.76 475.153 1756.72 475.153V467.153C1748.92 467.153 1742.31 465.505 1736.75 462.349L1732.8 469.305ZM1756.72 475.153C1762.7 475.153 1768.23 474.321 1773.26 472.592L1770.65 465.027C1766.59 466.424 1761.96 467.153 1756.72 467.153V475.153ZM1773.31 472.574C1778.34 470.767 1782.76 468.11 1786.51 464.592L1781.05 458.752C1778.13 461.483 1774.66 463.586 1770.6 465.045L1773.31 472.574ZM1786.51 464.592C1790.34 461.01 1793.19 456.6 1795.1 451.445L1787.59 448.674C1786.09 452.752 1783.9 456.084 1781.05 458.752L1786.51 464.592ZM1790.9 454.035L1826.91 458.083L1827.8 450.133L1791.79 446.085L1790.9 454.035ZM1823.46 453.179C1821.34 462.062 1817.32 469.768 1811.38 476.361L1817.33 481.713C1824.18 474.102 1828.82 465.188 1831.24 455.037L1823.46 453.179ZM1811.38 476.363C1805.52 482.88 1797.96 488.017 1788.59 491.724L1791.54 499.163C1801.91 495.057 1810.55 489.256 1817.33 481.711L1811.38 476.363ZM1788.62 491.715C1779.29 495.338 1768.5 497.196 1756.19 497.196V505.196C1769.3 505.196 1781.1 503.218 1791.51 499.172L1788.62 491.715ZM1887.78 490.969L1885.6 494.322L1887.78 490.969ZM1863.71 462.205L1867.33 460.506L1867.33 460.506L1863.71 462.205ZM1863.81 370.372L1860.21 368.641L1860.2 368.649L1863.81 370.372ZM1888.21 341.928L1890.33 345.32L1890.34 345.314L1890.35 345.309L1888.21 341.928ZM1946.06 337.134L1944.19 340.67L1944.2 340.678L1944.22 340.686L1946.06 337.134ZM1960.76 348.746L1957.63 351.239L1957.64 351.251L1957.65 351.263L1960.76 348.746ZM1969.18 361.423L1965.6 363.212L1966.7 365.423H1969.18V361.423ZM1970.77 361.423V365.423H1974.77V361.423H1970.77ZM1970.77 279.818V275.818H1966.77V279.818H1970.77ZM2009.45 279.818H2013.45V275.818H2009.45V279.818ZM2009.45 498V502H2013.45V498H2009.45ZM1971.52 498H1967.52V502H1971.52V498ZM1971.52 472.219H1975.52V468.219H1971.52V472.219ZM1969.18 472.219V468.219H1966.7L1965.6 470.43L1969.18 472.219ZM1960.55 484.896L1963.59 487.495L1963.6 487.483L1963.61 487.471L1960.55 484.896ZM1945.63 496.189L1947.44 499.758L1947.44 499.758L1945.63 496.189ZM1953.94 462.631L1956.37 465.807L1956.39 465.798L1956.4 465.788L1953.94 462.631ZM1967.05 443.987L1963.3 442.583L1963.3 442.583L1967.05 443.987ZM1967.05 388.589L1963.3 389.987L1963.3 390.001L1963.31 390.016L1967.05 388.589ZM1954.05 370.372L1951.62 373.553L1951.63 373.56L1951.64 373.567L1954.05 370.372ZM1911.54 370.585L1909.09 367.428L1909.09 367.428L1911.54 370.585ZM1898.54 389.122L1894.79 387.736L1894.79 387.736L1898.54 389.122ZM1898.54 443.561L1894.78 444.925L1894.79 444.946L1894.8 444.966L1898.54 443.561ZM1911.65 462.418L1909.14 465.537L1909.17 465.554L1909.19 465.571L1911.65 462.418ZM1922.3 496.876C1910.17 496.876 1899.43 493.772 1889.97 487.616L1885.6 494.322C1896.45 501.375 1908.72 504.876 1922.3 504.876V496.876ZM1889.97 487.616C1880.52 481.474 1872.95 472.503 1867.33 460.506L1860.09 463.903C1866.25 477.048 1874.74 487.254 1885.6 494.322L1889.97 487.616ZM1867.33 460.506C1861.75 448.599 1858.87 433.943 1858.87 416.395H1850.87C1850.87 434.785 1853.88 450.668 1860.09 463.903L1867.33 460.506ZM1858.87 416.395C1858.87 398.631 1861.78 383.916 1867.42 372.095L1860.2 368.649C1853.91 381.828 1850.87 397.795 1850.87 416.395H1858.87ZM1867.42 372.104C1873.18 360.107 1880.84 351.25 1890.33 345.32L1886.09 338.536C1875.13 345.389 1866.52 355.496 1860.21 368.641L1867.42 372.104ZM1890.35 345.309C1899.91 339.266 1910.56 336.233 1922.41 336.233V328.233C1909.11 328.233 1896.97 331.663 1886.07 338.546L1890.35 345.309ZM1922.41 336.233C1931.57 336.233 1938.76 337.799 1944.19 340.67L1947.93 333.597C1941 329.934 1932.42 328.233 1922.41 328.233V336.233ZM1944.22 340.686C1950 343.674 1954.42 347.211 1957.63 351.239L1963.89 346.253C1959.85 341.189 1954.48 336.985 1947.9 333.581L1944.22 340.686ZM1957.65 351.263C1961.14 355.574 1963.77 359.557 1965.6 363.212L1972.75 359.634C1970.6 355.336 1967.62 350.866 1963.87 346.229L1957.65 351.263ZM1969.18 365.423H1970.77V357.423H1969.18V365.423ZM1974.77 361.423V279.818H1966.77V361.423H1974.77ZM1970.77 283.818H2009.45V275.818H1970.77V283.818ZM2005.45 279.818V498H2013.45V279.818H2005.45ZM2009.45 494H1971.52V502H2009.45V494ZM1975.52 498V472.219H1967.52V498H1975.52ZM1971.52 468.219H1969.18V476.219H1971.52V468.219ZM1965.6 470.43C1963.79 474.054 1961.11 478.017 1957.49 482.321L1963.61 487.471C1967.52 482.827 1970.59 478.338 1972.75 474.008L1965.6 470.43ZM1957.51 482.297C1954.15 486.228 1949.62 489.687 1943.83 492.619L1947.44 499.758C1954 496.44 1959.42 492.371 1963.59 487.495L1957.51 482.297ZM1943.83 492.619C1938.37 495.379 1931.26 496.876 1922.3 496.876V504.876C1932.09 504.876 1940.54 503.248 1947.44 499.758L1943.83 492.619ZM1933.06 473.236C1941.99 473.236 1949.83 470.812 1956.37 465.807L1951.51 459.454C1946.54 463.256 1940.47 465.236 1933.06 465.236V473.236ZM1956.4 465.788C1962.83 460.789 1967.59 453.922 1970.79 445.392L1963.3 442.583C1960.53 449.961 1956.56 455.523 1951.49 459.473L1956.4 465.788ZM1970.79 445.392C1973.98 436.893 1975.52 427.13 1975.52 416.182H1967.52C1967.52 426.398 1966.08 435.172 1963.3 442.583L1970.79 445.392ZM1975.52 416.182C1975.52 405.236 1973.98 395.534 1970.78 387.163L1963.31 390.016C1966.08 397.27 1967.52 405.963 1967.52 416.182H1975.52ZM1970.79 387.192C1967.66 378.78 1962.91 372.037 1956.45 367.177L1951.64 373.567C1956.69 377.372 1960.61 382.774 1963.3 389.987L1970.79 387.192ZM1956.47 367.191C1949.99 362.244 1942.1 359.874 1933.06 359.874V367.874C1940.64 367.874 1946.75 369.836 1951.62 373.553L1956.47 367.191ZM1933.06 359.874C1923.74 359.874 1915.66 362.314 1909.09 367.428L1914 373.743C1918.93 369.908 1925.19 367.874 1933.06 367.874V359.874ZM1909.09 367.428C1902.66 372.427 1897.92 379.262 1894.79 387.736L1902.3 390.508C1904.99 383.215 1908.92 377.692 1914 373.743L1909.09 367.428ZM1894.79 387.736C1891.69 396.145 1890.18 405.648 1890.18 416.182H1898.18C1898.18 406.403 1899.58 397.866 1902.3 390.508L1894.79 387.736ZM1890.18 416.182C1890.18 426.785 1891.69 436.386 1894.78 444.925L1902.3 442.197C1899.58 434.686 1898.18 426.033 1898.18 416.182H1890.18ZM1894.8 444.966C1898 453.489 1902.75 460.406 1909.14 465.537L1914.15 459.298C1909.04 455.196 1905.06 449.542 1902.29 442.157L1894.8 444.966ZM1909.19 465.571C1915.81 470.743 1923.85 473.236 1933.06 473.236V465.236C1925.37 465.236 1919.13 463.184 1914.11 459.264L1909.19 465.571Z" fill="black"/>
<defs>
<linearGradient id="paint0_linear_1_35" x1="284.898" y1="389.306" x2="778.621" y2="389.306" gradientUnits="userSpaceOnUse">
<stop offset="5.32779e-09" stop-color="#29867A"/>
<stop offset="1" stop-color="#16C1CD"/>
</linearGradient>
<linearGradient id="paint1_linear_1_35" x1="177.55" y1="532.841" x2="601.07" y2="532.841" gradientUnits="userSpaceOnUse">
<stop offset="5.32779e-09" stop-color="#29867A"/>
<stop offset="1" stop-color="#16C1CD"/>
</linearGradient>
<linearGradient id="paint2_linear_1_35" x1="177.55" y1="246.859" x2="601.07" y2="246.859" gradientUnits="userSpaceOnUse">
<stop offset="5.32779e-09" stop-color="#29867A"/>
<stop offset="1" stop-color="#16C1CD"/>
</linearGradient>
<linearGradient id="paint3_linear_1_35" x1="-0.0007" y1="389.309" x2="491.555" y2="389.309" gradientUnits="userSpaceOnUse">
<stop offset="5.32779e-09" stop-color="#29867A"/>
<stop offset="1" stop-color="#16C1CD"/>
</linearGradient>
<linearGradient id="paint4_linear_1_35" x1="299.104" y1="389.308" x2="479.516" y2="389.308" gradientUnits="userSpaceOnUse">
<stop offset="5.32779e-09" stop-color="#29867A"/>
<stop offset="1" stop-color="#16C1CD"/>
</linearGradient>
</defs>
</svg>
