<svg width="149" height="150" viewBox="0 0 149 150" fill="none" xmlns="http://www.w3.org/2000/svg">
<path d="M124.28 34.5986C124.27 34.5986 124.262 34.5967 124.253 34.5967H122.152C121.539 34.5967 121.044 35.0923 121.044 35.7047V44.5514C121.044 45.1638 121.539 45.6594 122.152 45.6594H122.643C123.644 45.6594 123.998 45.6594 124.109 45.6594C131.745 45.6728 137.924 51.852 137.937 59.4855V90.7525C137.924 98.3879 131.745 104.565 124.109 104.579H56.1099C55.2316 104.579 54.5178 105.29 54.5178 106.171V114.051C54.5178 114.929 55.2296 115.643 56.1099 115.643H124.109C137.859 115.639 148.996 104.502 149 90.7544V59.4855C148.996 45.7953 137.951 34.6943 124.28 34.5986Z" fill="url(#paint0_linear_20_2)"/>
<path d="M113.915 121.972H105.068C104.456 121.972 103.96 122.467 103.96 123.08V124.729C103.947 132.365 97.7679 138.544 90.1344 138.557H58.8655C51.2301 138.544 45.0509 132.365 45.0394 124.729V57.1375C45.0394 56.2629 44.3295 55.553 43.455 55.553H35.5612C34.6866 55.553 33.9767 56.2629 33.9767 57.1375V124.729C33.9805 138.479 45.1179 149.616 58.8655 149.62H90.1344C103.624 149.616 114.598 138.892 115.01 125.5C115.002 125.508 114.991 125.499 114.975 125.481C114.996 125.405 115.01 125.326 115.016 125.246C115.014 125.33 115.012 125.416 115.01 125.5C115.019 125.493 115.023 125.468 115.023 125.422C115.023 125.422 115.023 125.311 115.023 125.179V124.792C115.023 124.752 115.023 124.729 115.023 124.729V123.08C115.023 122.467 114.528 121.972 113.915 121.972Z" fill="url(#paint1_linear_20_2)"/>
<path d="M35.0847 28.7582H43.9315C44.5438 28.7582 45.0394 28.2626 45.0394 27.6502V26.4235C45.0394 25.9758 45.0394 25.6887 45.0394 25.5088C45.0528 17.8734 51.232 11.6942 58.8655 11.6808H90.1344C97.7699 11.6942 103.947 17.8734 103.96 25.5088C103.96 25.5088 103.96 64.4304 103.96 93.5197C103.96 94.3923 104.669 95.0984 105.539 95.0984H113.437C114.311 95.0984 115.021 94.3885 115.021 93.5139V25.5088C115.019 11.7612 103.882 0.623822 90.1344 0.619995H58.8655C45.1179 0.623822 33.9805 11.7612 33.9767 25.5107V25.5509V25.7404V27.6521C33.9767 28.2626 34.4723 28.7582 35.0847 28.7582Z" fill="url(#paint2_linear_20_2)"/>
<path d="M26.7298 104.581H26.2647C25.1204 104.581 24.9175 104.581 24.8888 104.581C17.2534 104.567 11.0742 98.388 11.0609 90.7545V59.4856C11.0742 51.8502 17.2534 45.671 24.8888 45.6595H92.4729C93.3513 45.6595 94.0651 44.9477 94.0651 44.0674V36.187C94.0651 35.3086 93.3532 34.5948 92.4729 34.5948H24.8907C11.1412 34.5987 0.00382728 45.7361 0 59.4837V90.7507C0.00382728 104.397 10.9767 115.469 24.5846 115.636C24.5999 115.636 24.6133 115.64 24.6286 115.64H26.7298C27.3421 115.64 27.8378 115.144 27.8378 114.532V105.685C27.8378 105.076 27.3421 104.581 26.7298 104.581Z" fill="url(#paint3_linear_20_2)"/>
<path d="M75.7094 52.2424C76.0979 52.3687 76.5093 52.3439 76.9074 52.4108C83.1937 53.4442 87.6773 56.8639 90.3335 62.6373C91.4396 65.0409 91.895 67.6013 91.7266 70.2517C91.6367 71.6927 91.2233 73.0686 90.743 74.4196C89.6675 77.4508 88.1902 80.2907 86.5904 83.0674C83.9572 87.641 80.9968 92.0022 77.8776 96.2543C76.1898 98.5526 72.8447 98.5851 71.1664 96.3021C67.5898 91.4376 64.2142 86.4411 61.3303 81.1289C60.0443 78.7617 58.9134 76.3256 58.035 73.769C56.7835 70.135 57.0533 66.5622 58.4943 63.0832C60.7639 57.6025 64.8476 54.1561 70.5943 52.6883C71.4095 52.4797 72.2457 52.363 73.0877 52.3018C73.1413 52.2979 73.2121 52.3228 73.2389 52.2443C74.0637 52.2424 74.8866 52.2424 75.7094 52.2424ZM81.68 69.1533C81.6743 65.1863 78.4708 61.9886 74.5019 61.9905C70.533 61.9924 67.3334 65.1901 67.3296 69.159C67.3258 73.1375 70.5388 76.3448 74.521 76.339C78.4842 76.3333 81.6857 73.1184 81.68 69.1533Z" fill="url(#paint4_linear_20_2)"/>
<defs>
<linearGradient id="paint0_linear_20_2" x1="54.5193" y1="75.1193" x2="149" y2="75.1193" gradientUnits="userSpaceOnUse">
<stop offset="5.32779e-09" stop-color="#29867A"/>
<stop offset="1" stop-color="#16C1CD"/>
</linearGradient>
<linearGradient id="paint1_linear_20_2" x1="33.9767" y1="102.587" x2="115.023" y2="102.587" gradientUnits="userSpaceOnUse">
<stop offset="5.32779e-09" stop-color="#29867A"/>
<stop offset="1" stop-color="#16C1CD"/>
</linearGradient>
<linearGradient id="paint2_linear_20_2" x1="33.9767" y1="47.8599" x2="115.023" y2="47.8599" gradientUnits="userSpaceOnUse">
<stop offset="5.32779e-09" stop-color="#29867A"/>
<stop offset="1" stop-color="#16C1CD"/>
</linearGradient>
<linearGradient id="paint3_linear_20_2" x1="-0.000133955" y1="75.1199" x2="94.066" y2="75.1199" gradientUnits="userSpaceOnUse">
<stop offset="5.32779e-09" stop-color="#29867A"/>
<stop offset="1" stop-color="#16C1CD"/>
</linearGradient>
<linearGradient id="paint4_linear_20_2" x1="57.2377" y1="75.1196" x2="91.7623" y2="75.1196" gradientUnits="userSpaceOnUse">
<stop offset="5.32779e-09" stop-color="#29867A"/>
<stop offset="1" stop-color="#16C1CD"/>
</linearGradient>
</defs>
</svg>
