<svg width="1167" height="354" viewBox="0 0 1167 354" fill="none" xmlns="http://www.w3.org/2000/svg">
<path d="M42.5384 289H0.350853L77.1619 70.8182H125.955L202.872 289H160.685L102.411 115.562H100.706L42.5384 289ZM43.9233 203.453H158.98V235.2H43.9233V203.453ZM86.75 49.2983L110.614 0.612213H148.327L115.621 49.2983H86.75ZM296.089 353.773C282.24 353.773 270.344 351.891 260.401 348.126C250.457 344.433 242.467 339.462 236.43 333.212C230.393 326.962 226.203 320.037 223.859 312.438L258.589 304.021C260.152 307.217 262.425 310.378 265.408 313.503C268.391 316.699 272.403 319.327 277.446 321.386C282.56 323.517 288.987 324.582 296.729 324.582C307.666 324.582 316.722 321.919 323.895 316.592C331.068 311.337 334.655 302.672 334.655 290.598V259.597H332.737C330.749 263.574 327.837 267.658 324.001 271.848C320.237 276.038 315.23 279.554 308.98 282.395C302.801 285.236 295.024 286.656 285.649 286.656C273.078 286.656 261.679 283.709 251.452 277.814C241.295 271.848 233.199 262.97 227.162 251.18C221.196 239.32 218.213 224.476 218.213 206.649C218.213 188.68 221.196 173.517 227.162 161.159C233.199 148.73 241.331 139.32 251.558 132.928C261.786 126.464 273.185 123.233 285.756 123.233C295.344 123.233 303.227 124.866 309.406 128.134C315.656 131.33 320.628 135.2 324.321 139.746C328.014 144.22 330.82 148.446 332.737 152.423H334.868V125.364H372.901V291.663C372.901 305.655 369.563 317.232 362.886 326.393C356.21 335.555 347.084 342.409 335.507 346.955C323.93 351.5 310.791 353.773 296.089 353.773ZM296.409 256.401C304.577 256.401 311.537 254.412 317.29 250.435C323.043 246.457 327.411 240.74 330.393 233.283C333.376 225.825 334.868 216.876 334.868 206.436C334.868 196.138 333.376 187.118 330.393 179.376C327.482 171.635 323.149 165.634 317.396 161.372C311.714 157.04 304.719 154.874 296.409 154.874C287.815 154.874 280.642 157.111 274.889 161.585C269.136 166.06 264.804 172.203 261.892 180.016C258.98 187.757 257.524 196.564 257.524 206.436C257.524 216.45 258.98 225.222 261.892 232.75C264.875 240.207 269.243 246.031 274.996 250.222C280.82 254.341 287.957 256.401 296.409 256.401ZM412.425 289V125.364H450.99V289H412.425ZM431.814 102.139C425.706 102.139 420.45 100.115 416.047 96.0668C411.643 91.9474 409.442 87.0114 409.442 81.2585C409.442 75.4347 411.643 70.4986 416.047 66.4503C420.45 62.331 425.706 60.2713 431.814 60.2713C437.993 60.2713 443.249 62.331 447.581 66.4503C451.984 70.4986 454.186 75.4347 454.186 81.2585C454.186 87.0114 451.984 91.9474 447.581 96.0668C443.249 100.115 437.993 102.139 431.814 102.139ZM529.213 70.8182V289H490.647V70.8182H529.213ZM570.575 70.8182H618.941L683.714 228.915H686.271L751.043 70.8182H799.41V289H761.484V139.107H759.46L699.161 288.361H670.823L610.525 138.787H608.501V289H570.575V70.8182ZM913.188 292.196C896.782 292.196 882.613 288.787 870.681 281.969C858.82 275.08 849.694 265.349 843.302 252.778C836.91 240.136 833.714 225.257 833.714 208.141C833.714 191.308 836.91 176.536 843.302 163.822C849.765 151.038 858.785 141.095 870.362 133.993C881.938 126.82 895.539 123.233 911.164 123.233C921.249 123.233 930.766 124.866 939.715 128.134C948.735 131.33 956.69 136.301 963.579 143.048C970.539 149.795 976.008 158.389 979.985 168.83C983.962 179.199 985.951 191.557 985.951 205.903V217.729H851.825V191.734H948.984C948.913 184.348 947.315 177.778 944.19 172.026C941.065 166.202 936.697 161.621 931.086 158.283C925.546 154.945 919.083 153.276 911.697 153.276C903.813 153.276 896.888 155.193 890.923 159.028C884.957 162.793 880.305 167.764 876.967 173.943C873.7 180.051 872.031 186.763 871.96 194.078V216.77C871.96 226.287 873.7 234.455 877.18 241.273C880.66 248.02 885.525 253.205 891.775 256.827C898.025 260.378 905.34 262.153 913.721 262.153C919.332 262.153 924.41 261.372 928.955 259.81C933.501 258.176 937.442 255.797 940.781 252.672C944.119 249.547 946.64 245.676 948.344 241.06L984.353 245.108C982.08 254.625 977.748 262.935 971.356 270.037C965.035 277.068 956.938 282.537 947.066 286.443C937.194 290.278 925.901 292.196 913.188 292.196ZM1079.3 291.876C1066.45 291.876 1054.94 288.574 1044.78 281.969C1034.63 275.364 1026.6 265.776 1020.71 253.205C1014.81 240.634 1011.87 225.364 1011.87 207.395C1011.87 189.213 1014.85 173.872 1020.81 161.372C1026.85 148.801 1034.98 139.32 1045.21 132.928C1055.44 126.464 1066.84 123.233 1079.41 123.233C1089 123.233 1096.88 124.866 1103.06 128.134C1109.24 131.33 1114.14 135.2 1117.76 139.746C1121.38 144.22 1124.19 148.446 1126.18 152.423H1127.77V70.8182H1166.45V289H1128.52V263.219H1126.18C1124.19 267.196 1121.31 271.422 1117.55 275.896C1113.78 280.3 1108.81 284.064 1102.63 287.189C1096.45 290.314 1088.68 291.876 1079.3 291.876ZM1090.06 260.236C1098.23 260.236 1105.19 258.034 1110.94 253.631C1116.69 249.156 1121.06 242.942 1124.05 234.987C1127.03 227.033 1128.52 217.764 1128.52 207.182C1128.52 196.599 1127.03 187.402 1124.05 179.589C1121.13 171.777 1116.8 165.705 1111.05 161.372C1105.37 157.04 1098.37 154.874 1090.06 154.874C1081.47 154.874 1074.29 157.111 1068.54 161.585C1062.79 166.06 1058.46 172.239 1055.54 180.122C1052.63 188.006 1051.18 197.026 1051.18 207.182C1051.18 217.409 1052.63 226.536 1055.54 234.561C1058.53 242.516 1062.9 248.801 1068.65 253.418C1074.47 257.963 1081.61 260.236 1090.06 260.236Z" fill="url(#paint0_linear_2_43)"/>
<defs>
<linearGradient id="paint0_linear_2_43" x1="590.5" y1="-2" x2="590.5" y2="361" gradientUnits="userSpaceOnUse">
<stop stop-color="#29867A"/>
<stop offset="1" stop-color="#16C1CD"/>
</linearGradient>
</defs>
</svg>
